<?xml version="1.0" encoding="UTF-8" standalone="no" ?>
<!DOCTYPE svg PUBLIC "-//W3C//DTD SVG 1.1//EN" "http://www.w3.org/Graphics/SVG/1.1/DTD/svg11.dtd">
<svg xmlns="http://www.w3.org/2000/svg" xmlns:xlink="http://www.w3.org/1999/xlink" version="1.1" width="156.76902566094327" height="221.74065462115212" viewBox="0 0 156.76902566094327 221.74065462115212" xml:space="preserve">
<desc>Created with Fabric.js 2.0.1</desc>
<defs>
</defs>
<g transform="translate(78.38451283047164 110.87032731057606)" style="">
	<g transform="translate(1.4211e-14 -1.4211e-14)" style="">
	<path d="M 370.8 193 c 0 29.89706 -7.36899 57.469 -22.10698 82.71582 c -14.73799 25.24681 -142.69302 218.68418 -142.69302 218.68418 c 0 0 -127.95503 -193.43737 -142.69302 -218.68418 c -14.73799 -25.24681 -22.10698 -52.81876 -22.10698 -82.71582 c 0 -29.89706 7.36899 -57.469 22.10698 -82.71582 c 14.73799 -25.24681 34.73039 -45.23922 59.9772 -59.9772 c 25.24681 -14.73799 52.81876 -22.10698 82.71582 -22.10698 c 29.89706 0 57.469 7.36899 82.71582 22.10698 c 25.24681 14.73799 45.23922 34.73039 59.9772 59.9772 c 14.73799 25.24681 22.10698 52.81876 22.10698 82.71582 z" style="stroke: rgb(123,125,123); stroke-width: 0; stroke-dasharray: none; stroke-linecap: round; stroke-linejoin: miter; stroke-miterlimit: 10; fill: rgb(255,102,99); fill-rule: nonzero; opacity: 1;" transform="translate(0 0) scale(0.4756341797965511 0.4756341797965511) translate(-206.00000000000003, -261.3) " stroke-linecap="round" />
	<path d="M 322.6538 660 c 0 0 -181.14612 -273.84956 -202.01071 -309.5915 c -20.86459 -35.74194 -31.29688 -74.77559 -31.29688 -117.1009 c 0 -42.32531 10.43229 -81.35894 31.29688 -117.1009 c 20.86459 -35.74194 49.16786 -64.04523 84.90981 -84.90981 c 35.74194 -20.86459 117.1009 -31.29688 117.1009 -31.29688 z" style="stroke: rgb(123,125,123); stroke-width: 0; stroke-dasharray: none; stroke-linecap: round; stroke-linejoin: miter; stroke-miterlimit: 10; fill: rgb(239,86,83); fill-rule: nonzero; opacity: 1;" transform="translate(-39.134628541598374 -0.04962109619978605) scale(0.3358203269499318 0.3358203269499318) translate(-206.000005, -330.00000500000004) " stroke-linecap="round" />
	<path d="M 568 269 c 0 48.80042 -12.02827 93.80559 -36.08482 135.0155 c -24.05655 41.20991 -56.68977 73.84314 -97.89968 97.89968 c -41.20991 24.05655 -86.21508 36.08482 -135.0155 36.08482 c -48.80042 0 -93.80559 -12.02827 -135.0155 -36.08482 c -41.20991 -24.05655 -73.84314 -56.68977 -97.89968 -97.89968 c -24.05655 -41.20991 -36.08482 -86.21508 -36.08482 -135.0155 c 0 -48.80042 12.02827 -93.80559 36.08482 -135.0155 c 24.05655 -41.20991 56.68977 -73.84314 97.89968 -97.89968 c 41.20991 -24.05655 86.21508 -36.08482 135.0155 -36.08482 c 48.80042 0 93.80559 12.02827 135.0155 36.08482 c 41.20991 24.05655 73.84314 56.68977 97.89968 97.89968 c 24.05655 41.20991 36.08482 86.21508 36.08482 135.0155 z" style="stroke: rgb(123,125,123); stroke-width: 0; stroke-dasharray: none; stroke-linecap: round; stroke-linejoin: miter; stroke-miterlimit: 10; fill: rgb(237,222,219); fill-rule: nonzero; opacity: 1;" transform="translate(0.4756341797965433 -33.87032731057606) scale(0.18587360594795538 0.18587360594795535) translate(-299, -269) " stroke-linecap="round" />
	<path d="M 0 74.5 c 0 165.13314 133.86686 299 299 299 c 165.13314 0 299 -133.86686 299 -299" style="stroke: rgb(123,125,123); stroke-width: 0; stroke-dasharray: none; stroke-linecap: round; stroke-linejoin: miter; stroke-miterlimit: 10; fill: rgb(247,247,247); fill-rule: nonzero; opacity: 0.91;" transform="translate(0.4756341797965291 -54.16056369358235) rotate(-180) scale(0.13572064470238288 0.13572064470238288) translate(-299, -224) " stroke-linecap="round" />
	<path d="M 511.81068 268.97306 l 48.30699 47.27633 c 6.99062 6.54251 9.32083 14.71317 6.99062 24.51199 c -2.8082 9.55983 -8.87271 15.50484 -18.19354 17.83505 l -65.82836 16.80438 l 18.55204 65.11138 c 2.8082 9.55983 0.59749 17.73049 -6.63213 24.51199 c -6.7815 7.22962 -14.95216 9.44033 -24.51199 6.63213 l -65.11138 -18.55204 l -16.80438 65.82836 c -2.33021 9.32083 -8.27522 15.38534 -17.83505 18.19354 c -2.8082 0.47799 -5.01891 0.71699 -6.63213 0.71699 c -7.22962 0 -13.17463 -2.5692 -17.83505 -7.70761 l -47.27633 -48.30699 l -47.27633 48.30699 c -6.54251 6.99062 -14.71317 9.32083 -24.51199 6.99062 c -9.55983 -2.5692 -15.50484 -8.63372 -17.83505 -18.19354 l -16.80438 -65.82836 l -65.11138 18.55204 c -9.55983 2.8082 -17.73049 0.59749 -24.51199 -6.63213 c -7.22962 -6.7815 -9.44033 -14.95216 -6.63213 -24.51199 l 18.55204 -65.11138 l -65.82836 -16.80438 c -9.32083 -2.33021 -15.38534 -8.27522 -18.19354 -17.83505 c -2.33021 -9.79882 0 -17.96948 6.99062 -24.51199 l 48.30699 -47.27633 l -48.30699 -47.27633 c -6.99062 -6.54251 -9.32083 -14.71317 -6.99062 -24.51199 c 2.8082 -9.55983 8.87271 -15.50484 18.19354 -17.83505 l 65.82836 -16.80438 l -18.55204 -65.11138 c -2.8082 -9.55983 -0.59749 -17.73049 6.63213 -24.51199 c 6.7815 -7.22962 14.95216 -9.44033 24.51199 -6.63213 l 65.11138 18.55204 l 16.80438 -65.82836 c 2.33021 -9.55983 8.27522 -15.50484 17.83505 -17.83505 c 9.55983 -2.8082 17.73049 -0.59749 24.51199 6.63213 l 47.27633 48.66549 l 47.27633 -48.66549 c 6.7815 -6.99062 14.95216 -9.20133 24.51199 -6.63213 c 9.55983 2.33021 15.50484 8.27522 17.83505 17.83505 l 16.80438 65.82836 l 65.11138 -18.55204 c 9.55983 -2.8082 17.73049 -0.59749 24.51199 6.63213 c 7.22962 6.7815 9.44033 14.95216 6.63213 24.51199 l -18.55204 65.11138 l 65.82836 16.80438 c 9.32083 2.33021 15.38534 8.27522 18.19354 17.83505 c 2.33021 9.79882 0 17.96948 -6.99062 24.51199 z" style="stroke: rgb(123,125,123); stroke-width: 0; stroke-dasharray: none; stroke-linecap: round; stroke-linejoin: miter; stroke-miterlimit: 10; fill: rgb(241,194,125); fill-rule: nonzero; opacity: 1;" transform="translate(12.289619815734278 -32.62756784665742) scale(0.059231147295598356 0.059231147295598356) translate(-298.9999899999999, -268.99999884247444) " stroke-linecap="round" />
	<path d="M 0 74.5 c 0 165.13314 133.86686 299 299 299 c 165.13314 0 299 -133.86686 299 -299" style="stroke: rgb(123,125,123); stroke-width: 0; stroke-dasharray: none; stroke-linecap: round; stroke-linejoin: miter; stroke-miterlimit: 10; fill: rgb(168,208,230); fill-rule: nonzero; opacity: 1;" transform="translate(0.47563417979655753 -13.580090927569863) scale(0.13572064470238288 0.13572064470238288) translate(-299, -224) " stroke-linecap="round" />
</g>
</g>
</svg>