<svg height="512pt" viewBox="0 0 512 512" width="512pt" xmlns="http://www.w3.org/2000/svg"><path d="m512 256c0 141.386719-114.613281 256-256 256s-256-114.613281-256-256 114.613281-256 256-256 256 114.613281 256 256zm0 0" fill="#4a7aff"/><path d="m265.21875 511.816406c136.664062-4.839844 246.050781-116.785156 246.765625-254.460937l-95.488281-95.488281-7.167969 10.546874-89.464844-89.464843-216.152343 189.253906 81.503906 81.507813-34.410156 43.691406zm0 0" fill="#2864f0"/><path d="m357.304688 297.714844c44.636718 0 80.824218-36.183594 80.824218-80.824219 0-44.636719-36.1875-80.824219-80.824218-80.824219-2.183594 0-4.34375.089844-6.484376.261719-8.414062-43.488281-46.679687-76.328125-92.625-76.328125-35.78125 0-66.910156 19.917969-82.90625 49.269531-2.332031-.171875-4.6875-.261719-7.0625-.261719-52.109374 0-94.355468 42.242188-94.355468 94.351563 0 52.113281 42.246094 94.355469 94.355468 94.355469zm0 0" fill="#fff"/><path d="m357.304688 136.070312c-2.183594 0-4.34375.085938-6.484376.257813-8.414062-43.488281-46.679687-76.328125-92.625-76.328125-.855468 0-1.703124.023438-2.550781.042969v237.671875h101.660157c44.636718 0 80.824218-36.183594 80.824218-80.820313 0-44.640625-36.1875-80.824219-80.824218-80.824219zm0 0" fill="#e9edf5"/><path d="m381 313.726562c0 21.523438-17.449219 38.972657-38.972656 38.972657-21.523438 0-38.972656-17.449219-38.972656-38.972657 0-21.523437 38.972656-70.992187 38.972656-70.992187s38.972656 49.46875 38.972656 70.992187zm0 0" fill="#80dbff"/><path d="m216.144531 368.710938c0 21.523437-17.449219 38.972656-38.972656 38.972656s-38.972656-17.449219-38.972656-38.972656c0-21.523438 38.972656-70.992188 38.972656-70.992188s38.972656 49.46875 38.972656 70.992188zm0 0" fill="#96e8ff"/><path d="m310.640625 436.671875c0 21.523437-17.449219 38.972656-38.976563 38.972656-21.523437 0-38.972656-17.449219-38.972656-38.972656s38.972656-70.992187 38.972656-70.992187 38.976563 49.46875 38.976563 70.992187zm0 0" fill="#96e8ff"/><path d="m310.640625 436.671875c0-21.058594-37.300781-68.855469-38.914063-70.914063v109.886719c21.496094-.035156 38.914063-17.46875 38.914063-38.972656zm0 0" fill="#80dbff"/></svg>