<svg height="512pt" viewBox="0 0 512 512" width="512pt" xmlns="http://www.w3.org/2000/svg"><path d="m512 256c0 141.386719-114.613281 256-256 256s-256-114.613281-256-256 114.613281-256 256-256 256 114.613281 256 256zm0 0" fill="#4a7aff"/><path d="m512 256c0-7.464844-.339844-14.847656-.964844-22.148438l-105.835937-105.835937-37.378907 28.804687-96.820312-96.820312-30 57.5 60.101562 60.101562-51.140624 51.144532-81.289063-81.285156-21.210937 21.210937 81.285156 81.289063-51.144532 51.140624-60.101562-60.101562-57.5 30 93.421875 93.421875-25.40625 40.777344 105.835937 105.835937c7.300782.625 14.683594.964844 22.148438.964844 141.386719 0 256-114.613281 256-256zm0 0" fill="#2864f0"/><path d="m376.871094 256c0 66.753906-54.117188 120.871094-120.871094 120.871094s-120.871094-54.117188-120.871094-120.871094 54.117188-120.871094 120.871094-120.871094 120.871094 54.117188 120.871094 120.871094zm0 0" fill="#fdba12"/><path d="m256 135.128906c-.117188 0-.238281.003906-.355469.003906v241.734376c.117188 0 .234375.003906.355469.003906 66.753906 0 120.871094-54.113282 120.871094-120.867188 0-66.757812-54.117188-120.875-120.871094-120.875zm0 0" fill="#ffa300"/><path d="m336.667969 256c0 44.550781-36.117188 80.667969-80.667969 80.667969s-80.667969-36.117188-80.667969-80.667969 36.117188-80.667969 80.667969-80.667969 80.667969 36.117188 80.667969 80.667969zm0 0" fill="#fcda15"/><path d="m256 175.332031c-.121094 0-.238281.007813-.355469.011719v161.3125c.117188 0 .234375.007812.355469.007812 44.550781 0 80.667969-36.113281 80.667969-80.664062s-36.117188-80.667969-80.667969-80.667969zm0 0" fill="#efc820"/><path d="m241 60h30v57.5h-30zm0 0" fill="#fdba12"/><path d="m255.644531 60h15.355469v57.5h-15.355469zm0 0" fill="#ffa300"/><path d="m241 394.5h30v57.5h-30zm0 0" fill="#fdba12"/><path d="m255.644531 394.5h15.355469v57.5h-15.355469zm0 0" fill="#ffa300"/><path d="m452 241v30h-57.5v-30zm0 0" fill="#ffa300"/><path d="m117.5 241v30h-57.5v-30zm0 0" fill="#fdba12"/><path d="m383.984375 106.796875 21.214844 21.214844-40.660157 40.65625-21.210937-21.210938zm0 0" fill="#ffa300"/><path d="m147.460938 343.324219 21.214843 21.214843-40.660156 40.65625-21.214844-21.210937zm0 0" fill="#fdba12"/><path d="m106.796875 128.015625 21.214844-21.214844 40.65625 40.660157-21.210938 21.210937zm0 0" fill="#fdba12"/><path d="m343.324219 364.539062 21.210937-21.210937 40.660156 40.65625-21.214843 21.214844zm0 0" fill="#ffa300"/></svg>