<svg height="512pt" viewBox="0 0 512 512" width="512pt" xmlns="http://www.w3.org/2000/svg"><path d="m512 256c0 141.386719-114.613281 256-256 256s-256-114.613281-256-256 114.613281-256 256-256 256 114.613281 256 256zm0 0" fill="#ff6155"/><path d="m270.757812 511.566406c134.515626-7.644531 241.242188-119.136718 241.242188-255.566406 0-21.484375-2.660156-42.34375-7.644531-62.28125l-90.417969-91.125-78.5 17.144531-42.738281-42.738281-60.28125 209.417969-89.917969-89.917969-19.722656 45.050781-45.777344 20.449219 137.644531 137.644531-22.8125 32.996094zm0 0" fill="#f92814"/><path d="m179 233h-36.5v-36.5h-29v36.5h-36.5v29h36.5v36.5h29v-36.5h36.5zm0 0" fill="#fff"/><path d="m373 190.5c-29.5 0-53.5-24-53.5-53.5s24-53.5 53.5-53.5 53.5 24 53.5 53.5-24 53.5-53.5 53.5zm0-76c-12.40625 0-22.5 10.09375-22.5 22.5s10.09375 22.5 22.5 22.5 22.5-10.09375 22.5-22.5-10.09375-22.5-22.5-22.5zm0 0" fill="#e9edf5"/><path d="m304.140625 286.71875v-178.578125c0-26.585937-21.554687-48.140625-48.140625-48.140625s-48.140625 21.554688-48.140625 48.140625v178.578125c-26.667969 16.257812-44.476563 45.621094-44.476563 79.140625 0 51.152344 41.464844 92.621094 92.617188 92.621094s92.617188-41.46875 92.617188-92.621094c0-33.519531-17.808594-62.882813-44.476563-79.140625zm0 0" fill="#fff"/><path d="m304.140625 286.71875v-178.578125c0-26.589844-21.554687-48.140625-48.140625-48.140625-.121094 0-.238281.007812-.355469.007812v398.464844c.117188 0 .238281.003906.355469.003906 51.152344 0 92.617188-41.464843 92.617188-92.617187 0-33.519531-17.808594-62.882813-44.476563-79.140625zm0 0" fill="#e9edf5"/><path d="m279.90625 310.089844v-173.445313c0-13.203125-10.703125-23.90625-23.90625-23.90625s-23.90625 10.703125-23.90625 23.90625v173.445313c-21.617188 9.277344-36.761719 30.753906-36.761719 55.769531 0 33.507813 27.160157 60.667969 60.667969 60.667969s60.667969-27.160156 60.667969-60.667969c0-25.015625-15.144531-46.492187-36.761719-55.769531zm0 0" fill="#fdba12"/><path d="m279.90625 310.089844v-173.445313c0-13.203125-10.703125-23.90625-23.90625-23.90625-.121094 0-.238281.007813-.355469.011719v313.769531c.117188 0 .234375.007813.355469.007813 33.507812 0 60.667969-27.160156 60.667969-60.667969 0-25.015625-15.144531-46.492187-36.761719-55.769531zm0 0" fill="#ffa300"/></svg>
