<svg height="512pt" viewBox="0 0 512 512" width="512pt" xmlns="http://www.w3.org/2000/svg"><path d="m512 256c0 141.386719-114.613281 256-256 256s-256-114.613281-256-256 114.613281-256 256-256 256 114.613281 256 256zm0 0" fill="#19cffc"/><path d="m512 256c0-4.601562-.128906-9.171875-.367188-13.710938l-152.695312-152.695312-8.375 50.726562-74.0625-74.058593-5.707031 100-76.699219-76.699219-8.066406 65.800781-96.433594 38.699219 62.652344 62.652344-85.984375 19.785156 57.234375 57.238281-33.933594 25.167969 152.726562 152.726562c4.539063.238282 9.109376.367188 13.710938.367188 141.386719 0 256-114.613281 256-256zm0 0" fill="#4ab8f7"/><path d="m445.738281 276.5v-41h-140.246093l41.40625-41.40625h75.539062v-41h-63.5v-63.5h-41v75.476562l-41.4375 41.4375v-140.246093h-41v140.246093l-41.40625-41.40625v-75.539062h-41v63.5h-63.5v41h75.476562l41.4375 41.4375h-140.246093v41h140.246093l-41.40625 41.40625h-75.539062v41h63.5v63.5h41v-75.476562l41.4375-41.4375v140.246093h41v-140.246093l41.40625 41.40625v75.539062h41v-63.5h63.5v-41h-75.476562l-41.4375-41.4375zm0 0" fill="#fff"/><path d="m445.738281 235.5h-140.246093l41.40625-41.40625h75.539062v-41h-63.5v-63.5h-41v75.476562l-41.4375 41.4375v-140.246093h-20.855469v379.476562h20.855469v-140.246093l41.40625 41.40625v75.539062h41v-63.5h63.5v-41h-75.476562l-41.4375-41.4375h140.246093zm0 0" fill="#e9edf5"/></svg>